# xmcd
#
# Track frame offsets:
#	150
#	15505
#	30561
#	39989
#	56486
#	66524
#	79484
#	90051
#	105670
#	122298
#	135401
#	145224
#
# Disc length: 2075
#
# Revision: 3
# Processed by: cddbd v1.5.1PL0 Copyright (c) Steve Scherf et al.
# Submitted via: audiograbber 1.81.03
# Normalized: r1:TDELIM( - ),TSWAP
#
DISCID=8f08190c
DTITLE=Various Artist - Ultimate Soul Classics Vol 3 [CD2]
DYEAR=1900
DGENRE=R&B
TTITLE0=Earth Wind and Fire - Sing A Song
TTITLE1=O'Jays - Use To Be My Girl
TTITLE2=Bill Withers - Ain't No Sunshine
TTITLE3=Tavares - She's Gone
TTITLE4=Lou Rawls - Love Is A Hurtin' Thing
TTITLE5=Ike and Tina Turner - A Fool In Love
TTITLE6=Irma Thomas - Wish Someone Would Care
TTITLE7=Enchantment - Gloria
TTITLE8=A Taste Of Honey - Sukiyaki
TTITLE9=Booker T. and The MG's - Green Onions
TTITLE10=The Jarmels - A Little Bit Of Soap
TTITLE11=Gene McDaniels - Towen Of Strength
EXTD=
EXTT0=
EXTT1=
EXTT2=
EXTT3=
EXTT4=
EXTT5=
EXTT6=
EXTT7=
EXTT8=
EXTT9=
EXTT10=
EXTT11=
PLAYORDER=
